PathFileType	4	(X/Y/Z)	0_coords_data.trc
DataRate	CameraRate	NumFrames	NumMarkers	Units	OrigDataRate	OrigDataStartFrame	OrigNumFrames
30.0	30.0	7	21	m	30.0	29	48
Frame#	Time	THUMB_TIP	THUMB_IP	THUMB_MCP	THUMB_CMC	INDEX_TIP	INDEX_DIP	INDEX_PIP	INDEX_MCP	MIDDLE_TIP	MIDDLE_DIP	MIDDLE_PIP	MIDDLE_MCP	RING_TIP	RING_DIP	RING_PIP	RING_MCP	PINKY_TIP	PINKY_DIP	PINKY_PIP	PINKY_MCP	WRIST
X1	Y1	Z1	X2	Y2	Z2	X3	Y3	Z3	X4	Y4	Z4	X5	Y5	Z5	X6	Y6	Z6	X7	Y7	Z7	X8	Y8	Z8	X9	Y9	Z9	X10	Y10	Z10	X11	Y11	Z11	X12	Y12	Z12	X13	Y13	Z13	X14	Y14	Z14	X15	Y15	Z15	X16	Y16	Z16	X17	Y17	Z17	X18	Y18	Z18	X19	Y19	Z19	X20	Y20	Z20	X21	Y21	Z21
28	0.9333333333333333	-0.01231980037689209	-0.13237100219726564	0.9913079833984375	-0.005321249961853027	-0.1049000015258789	0.9964320068359375	-0.01481149959564209	-0.08219149780273438	1.0165700073242188	-0.015344699859619141	-0.04384510040283203	1.0263599853515626	0.006118010044097901	-0.10253299713134766	0.8898150024414062	-0.0014631600379943841	-0.09453880310058593	0.9113709716796875	-0.00898429012298584	-0.08555110168457031	0.9339400024414063	-0.023062700271606444	-0.0701333999633789	0.968760986328125	0.010588800430297852	-0.06414420318603516	0.8646179809570312	0.004777609825134277	-0.060298698425292965	0.890531005859375	-0.004728690147399902	-0.05554489898681641	0.9193900146484375	-0.021262800216674805	-0.046626998901367185	0.9580689697265625	0.012109399795532227	-0.028743799209594727	0.8615089721679687	0.005693999767303467	-0.026981300354003906	0.8869849853515624	-0.003757200002670288	-0.02558970069885254	0.9149180297851562	-0.014702300071716308	-0.023811899185180663	0.9545189819335937	0.016428699493408205	0.015547499656677247	0.8882750244140625	0.006866620063781738	0.012203700065612793	0.9075449829101563	-0.002757430076599121	0.00819696044921875	0.9264959716796874	-0.010649499893188476	-0.0006022570133209221	0.9562589721679687	-0.04108110046386719	-0.010657699584960937	1.0428299560546874
29	0.9666666666666667	-0.003679009914398193	-0.13098399353027343	0.9877139892578125	-8.506200276315e-06	-0.10313099670410156	0.9940339965820313	-0.011563400268554687	-0.08187030029296875	1.0151799926757812	-0.013597700119018554	-0.04383969879150391	1.0251099853515624	0.007131239891052246	-0.09982360076904297	0.8887050170898437	-0.0013304400444030758	-0.09250659942626953	0.9100269775390625	-0.009614439964294433	-0.08438600158691406	0.932572021484375	-0.024191299438476564	-0.06991609954833984	0.9683519897460937	0.011552000045776367	-0.06273559951782226	0.864531982421875	0.004726150035858154	-0.05911740112304688	0.8900659790039063	-0.005966829776763916	-0.05469820022583008	0.9187559814453125	-0.02302039909362793	-0.04619340133666992	0.9575419921875	0.013359000205993652	-0.027274499893188475	0.8617139892578125	0.005614550113677979	-0.025708900451660157	0.8868880004882812	-0.005102590084075927	-0.02459709930419922	0.9146229858398438	-0.0166648006439209	-0.023327600479125975	0.9544450073242188	0.01665410041809082	0.015804800033569336	0.8891229858398437	0.006301569938659668	0.012724599838256835	0.9078319702148437	-0.004083119869232178	0.008856389999389648	0.9265059814453125	-0.012049400329589843	-0.000154320999979972	0.9561619873046875	-0.04047280120849609	-0.011384300231933594	1.0425799560546876
30	1.0	0.008797300338745118	-0.12554299926757811	0.9790850219726562	0.00777869987487793	-0.09822470092773437	0.98793701171875	-0.006092949867248535	-0.08009040069580078	1.0117100219726562	-0.011170499801635743	-0.04309489822387695	1.02302001953125	0.009940979957580566	-0.09269979858398437	0.886197021484375	-0.000153751000761985	-0.08704810333251953	0.9075960083007812	-0.01003890037536621	-0.08060150146484375	0.9304359741210938	-0.025767900466918944	-0.06872769927978516	0.966468994140625	0.014214400291442872	-0.058020801544189454	0.8644349975585938	0.005415850162506103	-0.055170101165771486	0.8894130249023438	-0.0071745400428771975	-0.051742698669433596	0.9174760131835937	-0.025800899505615236	-0.0446609992980957	0.9565050048828125	0.01658110046386719	-0.022910400390625	0.8630130004882812	0.006348849773406983	-0.021916000366210938	0.8869869995117188	-0.006976339817047119	-0.021510799407958983	0.9140609741210938	-0.01953190040588379	-0.021683599472045897	0.9542100219726563	0.017987800598144532	0.01746769905090332	0.8914500122070312	0.006028220176696777	0.01485159969329834	0.908948974609375	-0.005748970031738281	0.011115699768066407	0.926739013671875	-0.013902799606323242	0.001457110047340393	0.9561060180664063	-0.039826499938964845	-0.012375300407409667	1.0417900390625
31	1.0333333333333334	0.02133250045776367	-0.11452200317382813	0.96747802734375	0.015373499870300292	-0.08948739624023437	0.9797459716796875	-0.000328491985797882	-0.07559190368652344	1.0065900268554688	-0.00887108039855957	-0.04083829879760742	1.01997998046875	0.015311699867248535	-0.08190630340576172	0.885239013671875	0.0027119300365447997	-0.07872139739990235	0.905906005859375	-0.00993474006652832	-0.0748729019165039	0.9279390258789062	-0.028620199203491212	-0.06677940368652344	0.9638040161132813	0.019496000289916993	-0.05221929931640625	0.8662990112304687	0.007796440124511719	-0.050184101104736326	0.8898729858398438	-0.008042690277099609	-0.04759510040283203	0.9168209838867187	-0.02950950050354004	-0.04217290115356445	0.9551900024414063	0.022328800201416015	-0.018198299407958984	0.8667659912109374	0.008545189857482911	-0.01742720031738281	0.8884619750976562	-0.00882211971282959	-0.0174778995513916	0.9132869873046875	-0.022866100311279298	-0.019136899948120116	0.9531640014648437	0.020490999221801757	0.018388900756835937	0.89506298828125	0.006382180213928223	0.017125600814819335	0.91056201171875	-0.007278250217437744	0.014152600288391113	0.9269990234375	-0.016010299682617187	0.003919480085372925	0.9555479736328125	-0.039417900085449216	-0.012377900123596191	1.040780029296875
32	1.0666666666666667	0.028336599349975587	-0.10076000213623047	0.9556259765625	0.018673700332641603	-0.0793760986328125	0.9721329956054687	0.002821810007095337	-0.0702344970703125	1.0015499877929688	-0.007882830142974853	-0.03746789932250977	1.0165399780273439	0.021378099441528322	-0.07125640106201171	0.8876220092773438	0.006012750148773193	-0.07042680358886719	0.9063049926757812	-0.010072500228881835	-0.06885430145263671	0.9269439697265625	-0.0328385009765625	-0.06405789947509766	0.9620479736328125	0.02526740074157715	-0.0472963981628418	0.870541015625	0.01011139965057373	-0.04564730072021484	0.8917020263671875	-0.009434760093688965	-0.04353030014038086	0.9162780151367188	-0.03393439865112305	-0.0390990982055664	0.9537069702148437	0.02795359992980957	-0.015951499938964844	0.8731489868164063	0.0103681001663208	-0.014326199531555176	0.8907319946289063	-0.011343400001525878	-0.013638400077819824	0.9122440185546875	-0.026762800216674806	-0.01593809986114502	0.9521649780273438	0.02220599937438965	0.01765060043334961	0.8990360107421875	0.0062350001335144045	0.01872509956359863	0.9116530151367187	-0.009417550086975097	0.01738960075378418	0.9264130249023438	-0.018665000915527342	0.007224470138549805	0.9551090087890625	-0.03869779968261719	-0.011619199752807617	1.039030029296875
33	1.1	0.029613100051879882	-0.09102359771728516	0.949573974609375	0.018087499618530272	-0.07313639831542969	0.9691069946289063	0.002300960063934326	-0.06749669647216797	0.9994719848632813	-0.008208860397338867	-0.03534809875488281	1.0146900024414063	0.022783599853515624	-0.06573090362548828	0.8891580200195313	0.0057636399269104	-0.06570690155029296	0.906426025390625	-0.01159220027923584	-0.06479209899902344	0.9261229858398438	-0.035976200103759765	-0.06107690048217773	0.960801025390625	0.02748509979248047	-0.04397679901123047	0.8736500244140625	0.010587599754333496	-0.04222309875488281	0.893052001953125	-0.011062999725341797	-0.039997100830078125	0.9160059814453125	-0.03733219909667969	-0.035700298309326174	0.9530969848632812	0.030613399505615233	-0.014612899780273438	0.8786539916992188	0.010685400009155273	-0.011894399642944337	0.8923419799804687	-0.013241900444030761	-0.010319999694824219	0.9111069946289062	-0.02943790054321289	-0.012600399971008302	0.9514010009765625	0.0229237003326416	0.016177200317382814	0.90272900390625	0.005878330230712891	0.01982469940185547	0.9125960083007812	-0.011031499862670898	0.02025239944458008	0.9255120239257812	-0.020376300811767577	0.010617400169372558	0.954510009765625	-0.03868190002441406	-0.009944869995117187	1.038300048828125
34	1.1333333333333333	0.02845949935913086	-0.08847450256347657	0.9482160034179687	0.01646549987792969	-0.07162339782714844	0.9687009887695313	0.0006349740028381341	-0.0663865966796875	0.9991060180664062	-0.009393199920654297	-0.03418099975585937	1.01472998046875	0.020682699203491212	-0.06466840362548829	0.8891119995117187	0.0034984900951385497	-0.06428459930419922	0.9059080200195313	-0.014093199729919433	-0.06316220092773438	0.9253060302734375	-0.03756579971313476	-0.05869269943237305	0.9603109741210938	0.026968799591064452	-0.04250400161743164	0.8745859985351563	0.009332489967346192	-0.040399700164794924	0.893177978515625	-0.01274530029296875	-0.037914100646972655	0.915739013671875	-0.03874079895019531	-0.03333240127563476	0.9527750244140625	0.03094890022277832	-0.013691100120544433	0.8811489868164063	0.010564299583435058	-0.010353400230407714	0.893385986328125	-0.01426930046081543	-0.00814659023284912	0.9109210205078125	-0.030746099472045898	-0.01031350040435791	0.9512509765625	0.02425469970703125	0.015192999839782714	0.9054450073242187	0.006757150173187256	0.020204900741577148	0.9137420043945312	-0.010941300392150879	0.021845300674438475	0.9255540161132813	-0.021288000106811523	0.012664299964904785	0.9542930297851563	-0.039196399688720705	-0.008193499565124511	1.0382900390625
